<?xml version="1.0" encoding="utf-8"?>
<!-- Generator: Adobe Illustrator 24.0.0, SVG Export Plug-In . SVG Version: 6.00 Build 0)  -->
<svg version="1.1" id="Layer_1" xmlns="http://www.w3.org/2000/svg" xmlns:xlink="http://www.w3.org/1999/xlink" x="0px" y="0px"
	 viewBox="0 0 256 256" style="enable-background:new 0 0 256 256;" xml:space="preserve">
<style type="text/css">
	.st0{fill:#FFB69F;}
	.st1{fill:#72C2E9;}
	.st2{fill:#C2E5FF;}
	.st3{fill:#FC5D3D;}
	.st4{fill:#AFAFAF;}
	.st5{fill:#FFCBC3;}
	.st6{fill:#F0C020;}
	.st7{fill:#F8E5B0;}
	.st8{fill:#EFEFEF;}
	.st9{fill:#EEC21E;}
	.st10{fill:#FFFFFF;}
	.st11{fill:#F1BF21;}
	.st12{fill:#E8A61E;}
	.st13{fill:#7D7B79;}
	.st14{fill:#B34F33;}
	.st15{fill:#F8E5B2;}
	.st16{fill:#C5E5FE;}
	.st17{fill:#4C4944;}
	.st18{fill:#4BA5C8;}
	.st19{fill:#AFAEAF;}
	.st20{fill:#CF941C;}
	.st21{fill:#7C7B7A;}
	.st22{fill:#FAE0E1;}
	.st23{fill:#13BF6D;}
	.st24{fill:#76FFBB;}
	.st25{fill:#F2E1D7;}
	.st26{fill:#878787;}
	.st27{fill:#F9E5AF;}
	.st28{fill:#E8A61F;}
	.st29{fill:none;stroke:#000000;stroke-width:5;stroke-linecap:round;stroke-linejoin:round;stroke-miterlimit:10;}
	.st30{fill:#EFEFF0;}
	.st31{fill:#E8A61B;}
	.st32{fill:#EFEFEE;}
	.st33{fill:#4C4945;}
	.st34{fill:#EA8F7D;}
	.st35{fill:#D6C0B3;}
	.st36{fill:#EEC120;}
</style>
<g>
</g>
<g>
	<path class="st1" d="M223.986,150.446c-2.274,9.81-6.029,19.065-11,27.526l16.288,16.289c-8.805,13.38-20.175,24.935-33.397,33.925
		l-16.209-16.209c-8.514,5.236-17.901,9.228-27.87,11.687v22.979c-15.485,3.139-32.105,3.141-47.596,0v-22.979
		c-9.969-2.459-19.356-6.452-27.87-11.687l-16.209,16.209c-13.221-8.99-24.591-20.545-33.397-33.925l16.288-16.289
		c-4.971-8.461-8.726-17.716-11-27.526H9.089c-2.94-15.546-2.791-31.914,0.529-47.596h23.031c2.486-9.467,6.373-18.377,11.37-26.522
		L27.81,60.119c8.99-13.221,20.546-24.591,33.926-33.397l16.288,16.289c8.065-4.759,16.844-8.382,26.178-10.709V9.35
		c15.485-3.139,32.105-3.141,47.596,0v22.952c9.334,2.327,18.113,5.95,26.178,10.709l16.288-16.289
		c13.38,8.805,24.935,20.175,33.926,33.397l-16.209,16.209c4.998,8.144,8.885,17.055,11.37,26.522h23.031
		c3.317,15.67,3.471,32.037,0.529,47.596H223.986z"/>
	<circle class="st8" cx="128" cy="127.996" r="70.678"/>
	<path class="st3" d="M182.47,129.837l-8.065,8.073l-46.41-46.41L91.155,128.35l-9.56,9.56l-8.065-8.073
		c5.579-5.567-3.082,3.092,54.466-54.466C185.56,132.936,176.89,124.269,182.47,129.837z"/>
	<polygon class="st6" points="164.846,128.347 164.846,171.621 91.154,171.621 91.154,128.347 128,91.501 	"/>
	<path class="st7" d="M154.697,167.447c-1.381,0-2.5-1.119-2.5-2.5v-6.761c0-1.381,1.119-2.5,2.5-2.5s2.5,1.119,2.5,2.5v6.761
		C157.197,166.328,156.078,167.447,154.697,167.447z M154.697,150.686c-1.381,0-2.5-1.119-2.5-2.5v-14.208l-25.965-25.965
		c-0.977-0.976-0.977-2.559,0-3.535c0.976-0.977,2.559-0.977,3.536,0l26.697,26.697c0.469,0.469,0.732,1.104,0.732,1.768v15.244
		C157.197,149.567,156.078,150.686,154.697,150.686z"/>
	<path class="st8" d="M144.632,171.621h-33.264v-23.459c0-9.186,7.446-16.632,16.632-16.632s16.632,7.446,16.632,16.632V171.621z"/>
	<path d="M91.154,174.125h73.693c1.381,0,2.5-1.119,2.5-2.5v-37.238l5.293,5.293c0.981,1.002,2.579,0.972,3.53,0l8.07-8.07
		c0.995-1.016,0.955-2.595-0.011-3.54l-54.47-54.46c-0.94-0.95-2.59-0.95-3.53,0c-56.835,56.846-48.699,48.716-54.47,54.46
		c-0.938,0.939-1.01,2.508,0,3.54l8.07,8.07c0.94,0.95,2.59,0.95,3.53,0l5.294-5.294v37.239
		C88.654,173.006,89.773,174.125,91.154,174.125z M142.13,169.125H130.5v-34.854c6.592,1.201,11.621,6.973,11.63,13.899V169.125z
		 M162.347,169.125H147.13V148.17c0-10.511-8.517-19.06-19.013-19.124c-0.04-0.002-0.077-0.012-0.117-0.012
		c-0.032,0-0.061,0.008-0.092,0.009c-8.056,0.039-14.898,5.018-17.698,12.076c-0.51,1.28,0.12,2.73,1.4,3.24
		c1.27,0.5,2.75-0.15,3.25-1.4c1.836-4.629,5.871-7.856,10.64-8.702v34.867h-11.63v-7.235c0-1.38-1.12-2.5-2.5-2.5
		c-1.38,0-2.5,1.12-2.5,2.5v7.235H93.654v-39.738L128,95.041l34.347,34.346V169.125z M81.6,134.38l-4.53-4.54L128,78.91
		c6.017,6.017,45.715,45.715,50.93,50.93l-4.53,4.54c-0.439-0.439-2.303-2.314-44.632-44.643c-0.988-0.988-2.574-0.964-3.535,0
		C123.821,92.149,84.011,131.968,81.6,134.38z"/>
	<circle cx="111.37" cy="151.89" r="2.5"/>
	<path d="M7.17,102.34c-3.258,15.406-3.647,32.087-0.54,48.57c0.22,1.18,1.26,2.04,2.46,2.04h20.96c2.17,8.56,5.48,16.84,9.84,24.61
		L24.96,192.5c-0.84,0.83-0.97,2.15-0.32,3.14c8.95,13.615,20.593,25.448,34.08,34.62c0.97,0.66,2.34,0.52,3.17-0.3l14.83-14.83
		c7.84,4.61,16.24,8.14,24.98,10.48v21.04c0,1.18,0.84,2.21,2.01,2.45c15.839,3.2,32.735,3.201,48.58,0
		c1.16-0.24,2.01-1.27,2.01-2.45v-21.04c8.74-2.34,17.14-5.87,24.98-10.48l14.829,14.83c0.83,0.82,2.2,0.95,3.171,0.3
		c12.95-8.819,24.754-20.433,34.079-34.62c0.65-0.99,0.521-2.31-0.319-3.14l-14.931-14.94c4.36-7.76,7.671-16.04,9.841-24.61h20.96
		c1.199,0,2.239-0.86,2.46-2.04c2.905-15.407,2.945-32.085-0.54-48.57c-0.25-1.15-1.271-1.99-2.45-1.99h-21.12
		c-2.33-8.2-5.74-16.15-10.13-23.63l14.82-14.83c0.85-0.85,0.979-2.18,0.31-3.17c-3.05-4.48-6.43-8.82-10.06-12.88
		c-0.881-0.99-2.54-1.09-3.53-0.2c-1.03,0.91-1.12,2.5-0.2,3.53c0,0,0,0,0.01,0c3.011,3.39,5.86,6.98,8.471,10.66l-14.74,14.73
		c-0.82,0.82-0.97,2.09-0.36,3.08c4.98,8.12,8.71,16.82,11.08,25.85c0.29,1.1,1.29,1.86,2.42,1.86h20.99
		c2.774,14.377,2.813,28.994,0.479,42.6H223.99c-1.181,0-2.181,0.8-2.44,1.94c-2.18,9.4-5.79,18.42-10.72,26.82
		c-0.58,0.98-0.42,2.23,0.39,3.03l14.83,14.84c-8.11,11.88-18.16,22.1-29.88,30.37l-14.74-14.74c-0.79-0.8-2.11-0.95-3.07-0.36
		c-8.449,5.2-17.59,9.03-27.159,11.39c-1.12,0.28-1.9,1.27-1.9,2.43v20.91c-13.83,2.55-28.77,2.55-42.6,0v-20.91
		c0-1.15-0.78-2.15-1.9-2.43c-9.57-2.36-18.71-6.19-27.16-11.39c-0.96-0.59-2.28-0.44-3.08,0.36l-14.73,14.74
		c-11.72-8.27-21.77-18.49-29.88-30.37l14.83-14.84c0.81-0.8,0.97-2.05,0.39-3.03c-4.93-8.4-8.54-17.42-10.72-26.82
		c-0.26-1.14-1.26-1.94-2.43-1.94H11.18c-2.412-14.189-2.203-28.696,0.48-42.6h20.99c1.13,0,2.13-0.76,2.42-1.86
		c2.37-9.03,6.1-17.73,11.08-25.85c0.61-0.99,0.46-2.25-0.36-3.08L31.05,59.83c8.28-11.72,18.49-21.77,30.37-29.88l14.84,14.83
		c0.78,0.79,2.07,0.95,3.04,0.39c7.93-4.68,16.51-8.19,25.51-10.44c1.11-0.28,1.89-1.27,1.89-2.42V11.42
		c13.82-2.55,28.78-2.55,42.6,0v20.89c0,1.15,0.78,2.14,1.89,2.42c9,2.25,17.58,5.76,25.511,10.44c0.96,0.56,2.26,0.4,3.04-0.39
		l14.84-14.83c2.64,1.8,5.229,3.73,7.71,5.73c1.029,0.83,2.68,0.66,3.52-0.38c0.86-1.07,0.69-2.65-0.38-3.52
		c-3.14-2.53-6.439-4.93-9.79-7.14c-0.97-0.64-2.33-0.5-3.14,0.32l-14.94,14.93c-7.3-4.12-15.13-7.32-23.26-9.52V9.35
		c0-1.18-0.85-2.21-2.01-2.45c-15.73-3.19-32.85-3.19-48.58,0c-1.17,0.24-2.01,1.27-2.01,2.45v21.02c-8.13,2.2-15.96,5.4-23.26,9.52
		L63.5,24.96c-0.82-0.82-2.17-0.96-3.14-0.32c-13.429,8.828-25.312,20.394-34.62,34.08c-0.67,0.99-0.55,2.32,0.3,3.17l14.83,14.83
		c-4.4,7.48-7.8,15.43-10.13,23.63H9.62C8.44,100.35,7.42,101.19,7.17,102.34z"/>
	<path d="M209.569,38.6c-0.949,1-0.909,2.58,0.091,3.53c0.948,0.928,2.55,0.941,3.529-0.08c0.946-1.007,0.921-2.573-0.09-3.54
		C212.13,37.59,210.49,37.63,209.569,38.6z"/>
	<path d="M60.81,139.65c-0.23-1.35-1.53-2.28-2.89-2.04c-1.346,0.228-2.269,1.515-2.04,2.89c0.255,1.459,1.68,2.291,2.89,2.03
		C60.1,142.308,61.06,141.03,60.81,139.65z"/>
	<path d="M128,201.18c40.418,0,73.18-32.78,73.18-73.18c0-40.422-32.782-73.18-73.18-73.18c-42.126,0-74.841,35.507-73.14,75.39
		c0.04,1.38,1.2,2.47,2.57,2.42c1.37-0.04,2.46-1.2,2.42-2.57C58.716,91.531,89.546,59.82,128,59.82
		c37.753,0,68.18,30.574,68.18,68.18c0,37.663-30.486,68.18-68.19,68.18c-29.67,0-55.74-18.96-64.87-47.18
		c-0.42-1.28-1.85-2.03-3.15-1.61c-1.31,0.42-2.03,1.84-1.61,3.15C67.905,180.068,95.599,201.18,128,201.18z"/>
</g>
</svg>
